<svg width="58" height="45" viewBox="0 0 58 45" fill="none" xmlns="http://www.w3.org/2000/svg">
<rect y="8" width="58" height="30" rx="5" fill="#F36C44"/>
<path d="M15.2686 17.3018C13.8564 17.3018 12.7402 17.7734 11.9199 18.7168C11.1055 19.6543 10.6982 20.9404 10.6982 22.5752C10.6982 24.2568 11.0908 25.5576 11.876 26.4775C12.667 27.3916 13.792 27.8486 15.251 27.8486C16.1475 27.8486 17.1699 27.6875 18.3184 27.3652V28.6748C17.4277 29.0088 16.3291 29.1758 15.0225 29.1758C13.1299 29.1758 11.668 28.6016 10.6367 27.4531C9.61133 26.3047 9.09863 24.6729 9.09863 22.5576C9.09863 21.2334 9.34473 20.0732 9.83691 19.0771C10.335 18.0811 11.0498 17.3135 11.9814 16.7744C12.9189 16.2354 14.0205 15.9658 15.2861 15.9658C16.6338 15.9658 17.8115 16.2119 18.8193 16.7041L18.1865 17.9873C17.2139 17.5303 16.2412 17.3018 15.2686 17.3018ZM22.0913 29H20.6323V15.3242H22.0913V29ZM28.9844 29.1758C27.5606 29.1758 26.4356 28.7422 25.6094 27.875C24.7891 27.0078 24.3789 25.8037 24.3789 24.2627C24.3789 22.71 24.7598 21.4766 25.5215 20.5625C26.2891 19.6484 27.3174 19.1914 28.6065 19.1914C29.8135 19.1914 30.7686 19.5898 31.4717 20.3867C32.1748 21.1777 32.5264 22.2236 32.5264 23.5244V24.4473H25.8907C25.92 25.5781 26.2041 26.4365 26.7432 27.0225C27.2881 27.6084 28.0528 27.9014 29.0371 27.9014C30.0743 27.9014 31.0996 27.6846 32.1133 27.251V28.5518C31.5977 28.7744 31.1084 28.9326 30.6455 29.0264C30.1885 29.126 29.6348 29.1758 28.9844 29.1758ZM28.5889 20.4131C27.8155 20.4131 27.1973 20.665 26.7344 21.1689C26.2774 21.6729 26.0079 22.3701 25.9258 23.2607H30.962C30.962 22.3408 30.7569 21.6377 30.3467 21.1514C29.9366 20.6592 29.3506 20.4131 28.5889 20.4131ZM40.6763 29L40.3863 27.6289H40.316C39.8355 28.2324 39.355 28.6426 38.8746 28.8594C38.4 29.0703 37.8052 29.1758 37.0904 29.1758C36.1353 29.1758 35.3853 28.9297 34.8404 28.4375C34.3013 27.9453 34.0318 27.2451 34.0318 26.3369C34.0318 24.3916 35.5875 23.3721 38.6988 23.2783L40.3336 23.2256V22.6279C40.3336 21.8721 40.1695 21.3154 39.8414 20.958C39.5191 20.5947 39.0005 20.4131 38.2857 20.4131C37.483 20.4131 36.5748 20.6592 35.5611 21.1514L35.1129 20.0352C35.5875 19.7773 36.106 19.5752 36.6685 19.4287C37.2369 19.2822 37.8052 19.209 38.3736 19.209C39.522 19.209 40.3716 19.4639 40.9224 19.9736C41.4791 20.4834 41.7574 21.3008 41.7574 22.4258V29H40.6763ZM37.3804 27.9717C38.2886 27.9717 39.0005 27.7227 39.5162 27.2246C40.0377 26.7266 40.2984 26.0293 40.2984 25.1328V24.2627L38.8394 24.3242C37.6793 24.3652 36.8414 24.5469 36.3257 24.8691C35.816 25.1855 35.5611 25.6807 35.5611 26.3545C35.5611 26.8818 35.7193 27.2832 36.0357 27.5586C36.358 27.834 36.8062 27.9717 37.3804 27.9717ZM48.8966 19.1914C49.3243 19.1914 49.7081 19.2266 50.0479 19.2969L49.8458 20.6504C49.4473 20.5625 49.0958 20.5186 48.7911 20.5186C48.0118 20.5186 47.3438 20.835 46.7872 21.4678C46.2364 22.1006 45.961 22.8887 45.961 23.832V29H44.502V19.3672H45.7061L45.8731 21.1514H45.9434C46.3009 20.5244 46.7315 20.041 47.2354 19.7012C47.7393 19.3613 48.293 19.1914 48.8966 19.1914Z" fill="white"/>
</svg>
