<svg width="264" height="60" viewBox="0 0 132 60" preserveAspectRatio="none" fill="none" xmlns="http://www.w3.org/2000/svg">
<path d="M53.9375 39L48.125 23.8125H48.0312C48.1406 25.0156 48.1953 26.4453 48.1953 28.1016V39H46.3555V21.8672H49.3555L54.7812 36H54.875L60.3477 21.8672H63.3242V39H61.332V27.9609C61.332 26.6953 61.3867 25.3203 61.4961 23.8359H61.4023L55.543 39H53.9375ZM67.6752 39V21.8672H69.6673V39H67.6752ZM81.3542 23.4023C79.4714 23.4023 77.9831 24.0312 76.8894 25.2891C75.8034 26.5391 75.2605 28.2539 75.2605 30.4336C75.2605 32.6758 75.7839 34.4102 76.8308 35.6367C77.8855 36.8555 79.3855 37.4648 81.3308 37.4648C82.5261 37.4648 83.8894 37.25 85.4206 36.8203V38.5664C84.2331 39.0117 82.7683 39.2344 81.0261 39.2344C78.5027 39.2344 76.5534 38.4688 75.1784 36.9375C73.8113 35.4062 73.1277 33.2305 73.1277 30.4102C73.1277 28.6445 73.4558 27.0977 74.112 25.7695C74.7761 24.4414 75.7292 23.418 76.9714 22.6992C78.2214 21.9805 79.6902 21.6211 81.3777 21.6211C83.1745 21.6211 84.7448 21.9492 86.0886 22.6055L85.2448 24.3164C83.948 23.707 82.6511 23.4023 81.3542 23.4023Z" fill="red"/>
<rect x="0.5" y="0.5" width="131" height="59" rx="4.5" stroke="red"/>
</svg>