<svg width="17" height="17" viewBox="0 0 17 17" fill="none" xmlns="http://www.w3.org/2000/svg">
<g clip-path="url(#clip0)">
<path d="M13.9401 8.78C13.9401 8.44 13.6801 8.18 13.3401 8.18C13.0001 8.18 12.7401 8.44 12.7401 8.78C12.7401 11.12 10.8401 13.02 8.50006 13.02C6.16006 13.02 4.26006 11.12 4.26006 8.78C4.26006 8.44 4.00006 8.18 3.66006 8.18C3.32006 8.18 3.06006 8.44 3.06006 8.78C3.06006 11.56 5.14006 13.9 7.90006 14.2V15.8H5.72006C5.38006 15.8 5.12006 16.06 5.12006 16.4C5.12006 16.74 5.38006 17 5.72006 17H11.2801C11.6201 17 11.8801 16.74 11.8801 16.4C11.8801 16.06 11.6201 15.8 11.2801 15.8H9.10006V14.2C11.8601 13.9 13.9401 11.56 13.9401 8.78Z" fill="white"/>
<path d="M8.50016 0C6.66016 0 5.16016 1.5 5.16016 3.34V8.76C5.16016 10.62 6.66016 12.1 8.50016 12.12C10.3402 12.12 11.8402 10.62 11.8402 8.78V3.34C11.8402 1.5 10.3402 0 8.50016 0Z" fill="white"/>
</g>
<defs>
<clipPath id="clip0">
<rect width="17" height="17" fill="white"/>
</clipPath>
</defs>
</svg>
