<svg width="129" height="45" viewBox="0 0 129 45" fill="none" xmlns="http://www.w3.org/2000/svg">
<rect y="8" width="129" height="30" rx="5" fill="#794CCD"/>
<path d="M14.4531 29L10.0938 17.6094H10.0234C10.1055 18.5117 10.1465 19.584 10.1465 20.8262V29H8.7666V16.1504H11.0166L15.0859 26.75H15.1562L19.2607 16.1504H21.4932V29H19.999V20.7207C19.999 19.7715 20.04 18.7402 20.1221 17.627H20.0518L15.6572 29H14.4531ZM23.0073 19.3672H24.5718L26.6812 24.8604C27.1441 26.1143 27.4312 27.0195 27.5425 27.5762H27.6128C27.689 27.2773 27.8472 26.7676 28.0874 26.0469C28.3335 25.3203 29.1304 23.0938 30.478 19.3672H32.0425L27.9029 30.3359C27.4927 31.4199 27.0122 32.1875 26.4614 32.6387C25.9165 33.0957 25.2456 33.3242 24.4487 33.3242C24.0034 33.3242 23.564 33.2744 23.1304 33.1748V32.0059C23.4527 32.0762 23.813 32.1113 24.2114 32.1113C25.2134 32.1113 25.9282 31.5488 26.356 30.4238L26.8921 29.0527L23.0073 19.3672ZM43.649 29L39.2896 17.6094H39.2193C39.3013 18.5117 39.3423 19.584 39.3423 20.8262V29H37.9625V16.1504H40.2125L44.2818 26.75H44.3521L48.4566 16.1504H50.689V29H49.1949V20.7207C49.1949 19.7715 49.2359 18.7402 49.3179 17.627H49.2476L44.8531 29H43.649ZM55.1915 29H53.7325V19.3672H55.1915V29ZM53.6095 16.7568C53.6095 16.4229 53.6915 16.1797 53.8555 16.0273C54.0196 15.8691 54.2247 15.79 54.4708 15.79C54.7052 15.79 54.9073 15.8691 55.0772 16.0273C55.2471 16.1855 55.3321 16.4287 55.3321 16.7568C55.3321 17.085 55.2471 17.3311 55.0772 17.4951C54.9073 17.6533 54.7052 17.7324 54.4708 17.7324C54.2247 17.7324 54.0196 17.6533 53.8555 17.4951C53.6915 17.3311 53.6095 17.085 53.6095 16.7568ZM59.4566 24.0693C59.7086 23.7119 60.0924 23.2432 60.608 22.6631L63.7193 19.3672H65.4508L61.5484 23.4717L65.7232 29H63.9566L60.5553 24.4473L59.4566 25.3965V29H58.0152V15.3242H59.4566V22.5752C59.4566 22.8975 59.4332 23.3955 59.3863 24.0693H59.4566ZM71.2716 29.1758C69.8478 29.1758 68.7228 28.7422 67.8966 27.875C67.0763 27.0078 66.6661 25.8037 66.6661 24.2627C66.6661 22.71 67.047 21.4766 67.8087 20.5625C68.5763 19.6484 69.6046 19.1914 70.8937 19.1914C72.1007 19.1914 73.0558 19.5898 73.7589 20.3867C74.462 21.1777 74.8136 22.2236 74.8136 23.5244V24.4473H68.1779C68.2071 25.5781 68.4913 26.4365 69.0304 27.0225C69.5753 27.6084 70.34 27.9014 71.3243 27.9014C72.3614 27.9014 73.3868 27.6846 74.4005 27.251V28.5518C73.8849 28.7744 73.3956 28.9326 72.9327 29.0264C72.4757 29.126 71.922 29.1758 71.2716 29.1758ZM70.8761 20.4131C70.1027 20.4131 69.4845 20.665 69.0216 21.1689C68.5646 21.6729 68.295 22.3701 68.213 23.2607H73.2491C73.2491 22.3408 73.0441 21.6377 72.6339 21.1514C72.2238 20.6592 71.6378 20.4131 70.8761 20.4131ZM82.9044 29H81.4455V19.3672H82.9044V29ZM81.3224 16.7568C81.3224 16.4229 81.4044 16.1797 81.5685 16.0273C81.7326 15.8691 81.9377 15.79 82.1837 15.79C82.4181 15.79 82.6203 15.8691 82.7902 16.0273C82.9601 16.1855 83.0451 16.4287 83.0451 16.7568C83.0451 17.085 82.9601 17.3311 82.7902 17.4951C82.6203 17.6533 82.4181 17.7324 82.1837 17.7324C81.9377 17.7324 81.7326 17.6533 81.5685 17.4951C81.4044 17.3311 81.3224 17.085 81.3224 16.7568ZM91.9421 26.3721C91.9421 27.2686 91.6081 27.96 90.9401 28.4463C90.2721 28.9326 89.3346 29.1758 88.1276 29.1758C86.8503 29.1758 85.8542 28.9736 85.1393 28.5693V27.2158C85.6022 27.4502 86.0973 27.6348 86.6247 27.7695C87.1579 27.9043 87.6706 27.9717 88.1628 27.9717C88.9245 27.9717 89.5104 27.8516 89.9206 27.6113C90.3307 27.3652 90.5358 26.9932 90.5358 26.4951C90.5358 26.1201 90.3718 25.8008 90.0436 25.5371C89.7214 25.2676 89.0886 24.9512 88.1452 24.5879C87.2487 24.2539 86.61 23.9639 86.2292 23.7178C85.8542 23.4658 85.5729 23.1816 85.3854 22.8652C85.2038 22.5488 85.113 22.1709 85.113 21.7314C85.113 20.9463 85.4323 20.3281 86.071 19.877C86.7096 19.4199 87.5856 19.1914 88.6989 19.1914C89.736 19.1914 90.7497 19.4023 91.7399 19.8242L91.2214 21.0107C90.2546 20.6123 89.3786 20.4131 88.5934 20.4131C87.902 20.4131 87.3805 20.5215 87.029 20.7383C86.6774 20.9551 86.5016 21.2539 86.5016 21.6348C86.5016 21.8926 86.5661 22.1123 86.695 22.2939C86.8298 22.4756 87.0436 22.6484 87.3366 22.8125C87.6296 22.9766 88.1921 23.2139 89.0241 23.5244C90.1667 23.9404 90.9372 24.3594 91.3356 24.7812C91.7399 25.2031 91.9421 25.7334 91.9421 26.3721ZM109.833 22.5576C109.833 24.6143 109.311 26.2314 108.268 27.4092C107.231 28.5869 105.787 29.1758 103.935 29.1758C102.043 29.1758 100.581 28.5986 99.5495 27.4443C98.5241 26.2842 98.0114 24.6494 98.0114 22.54C98.0114 20.4482 98.5271 18.8281 99.5583 17.6797C100.59 16.5254 102.054 15.9482 103.953 15.9482C105.799 15.9482 107.24 16.5342 108.277 17.7061C109.314 18.8779 109.833 20.4951 109.833 22.5576ZM99.5935 22.5576C99.5935 24.2979 99.9626 25.6191 100.701 26.5215C101.445 27.418 102.523 27.8662 103.935 27.8662C105.359 27.8662 106.434 27.418 107.161 26.5215C107.887 25.625 108.251 24.3037 108.251 22.5576C108.251 20.8291 107.887 19.5195 107.161 18.6289C106.44 17.7324 105.371 17.2842 103.953 17.2842C102.529 17.2842 101.445 17.7354 100.701 18.6377C99.9626 19.5342 99.5935 20.8408 99.5935 22.5576ZM118.809 29V22.7686C118.809 21.9834 118.63 21.3975 118.273 21.0107C117.915 20.624 117.356 20.4307 116.594 20.4307C115.586 20.4307 114.848 20.7031 114.379 21.248C113.91 21.793 113.676 22.6924 113.676 23.9463V29H112.217V19.3672H113.404L113.641 20.6855H113.711C114.01 20.2109 114.429 19.8447 114.968 19.5869C115.507 19.3232 116.108 19.1914 116.77 19.1914C117.93 19.1914 118.803 19.4727 119.389 20.0352C119.975 20.5918 120.268 21.4854 120.268 22.7158V29H118.809Z" fill="white"/>
</svg>
