<svg width="132" height="60" viewBox="0 0 132 60" fill="none" xmlns="http://www.w3.org/2000/svg">
<path d="M42.9375 39L37.125 23.8125H37.0312C37.1406 25.0156 37.1953 26.4453 37.1953 28.1016V39H35.3555V21.8672H38.3555L43.7812 36H43.875L49.3477 21.8672H52.3242V39H50.332V27.9609C50.332 26.6953 50.3867 25.3203 50.4961 23.8359H50.4023L44.543 39H42.9375ZM69.6127 21.8672V32.9531C69.6127 34.9062 69.0228 36.4414 67.8431 37.5586C66.6634 38.6758 65.0423 39.2344 62.9798 39.2344C60.9173 39.2344 59.3197 38.6719 58.1869 37.5469C57.0619 36.4219 56.4994 34.875 56.4994 32.9062V21.8672H58.4916V33.0469C58.4916 34.4766 58.8822 35.5742 59.6634 36.3398C60.4447 37.1055 61.5931 37.4883 63.1087 37.4883C64.5541 37.4883 65.6673 37.1055 66.4486 36.3398C67.2298 35.5664 67.6205 34.4609 67.6205 33.0234V21.8672H69.6127ZM79.073 39H77.0808V23.6367H71.655V21.8672H84.4987V23.6367H79.073V39ZM96.2794 39H86.7286V21.8672H96.2794V23.6367H88.7208V29.1562H95.8223V30.9141H88.7208V37.2188H96.2794V39Z" fill="red"/>
<rect x="0.5" y="0.5" width="131" height="59" rx="4.5" stroke="red"/>
</svg>
