<svg width="40" height="45" viewBox="0 0 40 45" fill="none" xmlns="http://www.w3.org/2000/svg">
<rect y="8" width="40" height="30" rx="5" fill="#794CCD"/>
<path d="M20.9199 22.5576C20.9199 24.6143 20.3984 26.2314 19.3555 27.4092C18.3184 28.5869 16.874 29.1758 15.0225 29.1758C13.1299 29.1758 11.668 28.5986 10.6367 27.4443C9.61133 26.2842 9.09863 24.6494 9.09863 22.54C9.09863 20.4482 9.61426 18.8281 10.6455 17.6797C11.6768 16.5254 13.1416 15.9482 15.04 15.9482C16.8857 15.9482 18.3271 16.5342 19.3643 17.7061C20.4014 18.8779 20.9199 20.4951 20.9199 22.5576ZM10.6807 22.5576C10.6807 24.2979 11.0498 25.6191 11.7881 26.5215C12.5322 27.418 13.6104 27.8662 15.0225 27.8662C16.4463 27.8662 17.5215 27.418 18.248 26.5215C18.9746 25.625 19.3379 24.3037 19.3379 22.5576C19.3379 20.8291 18.9746 19.5195 18.248 18.6289C17.5273 17.7324 16.458 17.2842 15.04 17.2842C13.6162 17.2842 12.5322 17.7354 11.7881 18.6377C11.0498 19.5342 10.6807 20.8408 10.6807 22.5576ZM32.8052 29H31.0474L26.3628 22.7686L25.0181 23.9639V29H23.5239V16.1504H25.0181V22.5225L30.8452 16.1504H32.6118L27.4439 21.7314L32.8052 29Z" fill="white"/>
</svg>
