<svg width="25" height="25" viewBox="0 0 25 25" fill="none" xmlns="http://www.w3.org/2000/svg">
<g clip-path="url(#clip0)">
<path d="M14.5283 0.915467C14.2383 0.777133 13.8967 0.8138 13.6467 1.01547L5.54 7.50046H1.66667C0.748333 7.50046 0 8.24879 0 9.16712V15.8338C0 16.7538 0.748333 17.5004 1.66667 17.5004H5.54L13.645 23.9854C13.7967 24.1054 13.9817 24.1671 14.1667 24.1671C14.29 24.1671 14.4133 24.1388 14.5283 24.0838C14.8167 23.9454 15 23.6538 15 23.3338V1.66713C15 1.34713 14.8167 1.05547 14.5283 0.915467Z" fill="white"/>
<path d="M19.2186 6.60713C18.8902 6.2838 18.3636 6.2888 18.0402 6.6138C17.7169 6.94213 17.7202 7.4688 18.0469 7.7938C19.3069 9.03713 20.0002 10.7088 20.0002 12.5005C20.0002 14.2921 19.3069 15.9638 18.0469 17.2071C17.7202 17.5288 17.7169 18.0571 18.0402 18.3855C18.2036 18.5505 18.4186 18.6321 18.6319 18.6321C18.8436 18.6321 19.0552 18.5521 19.2186 18.3905C20.7986 16.8355 21.6669 14.7421 21.6669 12.5005C21.6669 10.2588 20.7986 8.16547 19.2186 6.60713Z" fill="white"/>
<path d="M21.5701 4.2588C21.2417 3.9338 20.7151 3.93714 20.39 4.2638C20.0667 4.59047 20.07 5.1188 20.3951 5.44214C22.2901 7.32047 23.3334 9.82713 23.3334 12.5005C23.3334 15.1738 22.2901 17.6788 20.3951 19.5571C20.07 19.8821 20.0667 20.4105 20.39 20.7371C20.5551 20.9005 20.7684 20.9821 20.9817 20.9821C21.1934 20.9821 21.4067 20.9021 21.5701 20.7405C23.7834 18.5488 25.0001 15.6221 25.0001 12.5005C25.0001 9.3788 23.7834 6.45213 21.5701 4.2588Z" fill="white"/>
</g>
<defs>
<clipPath id="clip0">
<rect width="25" height="25" fill="white"/>
</clipPath>
</defs>
</svg>
