<svg width="100" height="45" viewBox="0 0 100 45" fill="none" xmlns="http://www.w3.org/2000/svg">
<rect y="8" width="100" height="30" rx="5" fill="#794CCD"/>
<path d="M14.7217 29H13.2275V17.4775H9.1582V16.1504H18.791V17.4775H14.7217V29ZM26.1675 29L25.8775 27.6289H25.8071C25.3267 28.2324 24.8462 28.6426 24.3657 28.8594C23.8911 29.0703 23.2964 29.1758 22.5816 29.1758C21.6265 29.1758 20.8765 28.9297 20.3316 28.4375C19.7925 27.9453 19.523 27.2451 19.523 26.3369C19.523 24.3916 21.0786 23.3721 24.19 23.2783L25.8247 23.2256V22.6279C25.8247 21.8721 25.6607 21.3154 25.3325 20.958C25.0103 20.5947 24.4917 20.4131 23.7769 20.4131C22.9741 20.4131 22.0659 20.6592 21.0523 21.1514L20.604 20.0352C21.0786 19.7773 21.5972 19.5752 22.1597 19.4287C22.728 19.2822 23.2964 19.209 23.8648 19.209C25.0132 19.209 25.8628 19.4639 26.4136 19.9736C26.9702 20.4834 27.2486 21.3008 27.2486 22.4258V29H26.1675ZM22.8716 27.9717C23.7798 27.9717 24.4917 27.7227 25.0073 27.2246C25.5288 26.7266 25.7896 26.0293 25.7896 25.1328V24.2627L24.3306 24.3242C23.1704 24.3652 22.3325 24.5469 21.8169 24.8691C21.3071 25.1855 21.0523 25.6807 21.0523 26.3545C21.0523 26.8818 21.2105 27.2832 21.5269 27.5586C21.8491 27.834 22.2974 27.9717 22.8716 27.9717ZM31.4346 24.0693C31.6866 23.7119 32.0704 23.2432 32.586 22.6631L35.6973 19.3672H37.4287L33.5264 23.4717L37.7012 29H35.9346L32.5332 24.4473L31.4346 25.3965V29H29.9932V15.3242H31.4346V22.5752C31.4346 22.8975 31.4112 23.3955 31.3643 24.0693H31.4346ZM43.2496 29.1758C41.8257 29.1758 40.7007 28.7422 39.8746 27.875C39.0543 27.0078 38.6441 25.8037 38.6441 24.2627C38.6441 22.71 39.025 21.4766 39.7867 20.5625C40.5543 19.6484 41.5826 19.1914 42.8716 19.1914C44.0787 19.1914 45.0338 19.5898 45.7369 20.3867C46.44 21.1777 46.7916 22.2236 46.7916 23.5244V24.4473H40.1558C40.1851 25.5781 40.4693 26.4365 41.0084 27.0225C41.5533 27.6084 42.3179 27.9014 43.3023 27.9014C44.3394 27.9014 45.3648 27.6846 46.3785 27.251V28.5518C45.8629 28.7744 45.3736 28.9326 44.9107 29.0264C44.4537 29.126 43.9 29.1758 43.2496 29.1758ZM42.8541 20.4131C42.0806 20.4131 41.4625 20.665 40.9996 21.1689C40.5425 21.6729 40.273 22.3701 40.191 23.2607H45.2271C45.2271 22.3408 45.022 21.6377 44.6119 21.1514C44.2017 20.6592 43.6158 20.4131 42.8541 20.4131ZM64.7965 22.5576C64.7965 24.6143 64.275 26.2314 63.232 27.4092C62.1949 28.5869 60.7506 29.1758 58.899 29.1758C57.0064 29.1758 55.5445 28.5986 54.5133 27.4443C53.4879 26.2842 52.9752 24.6494 52.9752 22.54C52.9752 20.4482 53.4908 18.8281 54.5221 17.6797C55.5533 16.5254 57.0182 15.9482 58.9166 15.9482C60.7623 15.9482 62.2037 16.5342 63.2408 17.7061C64.2779 18.8779 64.7965 20.4951 64.7965 22.5576ZM54.5572 22.5576C54.5572 24.2979 54.9264 25.6191 55.6646 26.5215C56.4088 27.418 57.4869 27.8662 58.899 27.8662C60.3229 27.8662 61.398 27.418 62.1246 26.5215C62.8512 25.625 63.2145 24.3037 63.2145 22.5576C63.2145 20.8291 62.8512 19.5195 62.1246 18.6289C61.4039 17.7324 60.3346 17.2842 58.9166 17.2842C57.4928 17.2842 56.4088 17.7354 55.6646 18.6377C54.9264 19.5342 54.5572 20.8408 54.5572 22.5576ZM69.2902 29L65.6339 19.3672H67.1984L69.2726 25.0801C69.7413 26.416 70.0167 27.2832 70.0988 27.6816H70.1691C70.2335 27.3711 70.4357 26.7295 70.7755 25.7568C71.1212 24.7783 71.8917 22.6484 73.087 19.3672H74.6515L70.9952 29H69.2902ZM79.9977 29.1758C78.5739 29.1758 77.4489 28.7422 76.6227 27.875C75.8024 27.0078 75.3922 25.8037 75.3922 24.2627C75.3922 22.71 75.7731 21.4766 76.5348 20.5625C77.3024 19.6484 78.3307 19.1914 79.6198 19.1914C80.8268 19.1914 81.7819 19.5898 82.485 20.3867C83.1881 21.1777 83.5397 22.2236 83.5397 23.5244V24.4473H76.9039C76.9332 25.5781 77.2174 26.4365 77.7565 27.0225C78.3014 27.6084 79.0661 27.9014 80.0504 27.9014C81.0875 27.9014 82.1129 27.6846 83.1266 27.251V28.5518C82.611 28.7744 82.1217 28.9326 81.6588 29.0264C81.2018 29.126 80.6481 29.1758 79.9977 29.1758ZM79.6022 20.4131C78.8288 20.4131 78.2106 20.665 77.7477 21.1689C77.2907 21.6729 77.0211 22.3701 76.9391 23.2607H81.9752C81.9752 22.3408 81.7702 21.6377 81.36 21.1514C80.9498 20.6592 80.3639 20.4131 79.6022 20.4131ZM90.1603 19.1914C90.588 19.1914 90.9718 19.2266 91.3117 19.2969L91.1095 20.6504C90.7111 20.5625 90.3595 20.5186 90.0548 20.5186C89.2755 20.5186 88.6076 20.835 88.0509 21.4678C87.5002 22.1006 87.2248 22.8887 87.2248 23.832V29H85.7658V19.3672H86.9699L87.1369 21.1514H87.2072C87.5646 20.5244 87.9953 20.041 88.4992 19.7012C89.0031 19.3613 89.5568 19.1914 90.1603 19.1914Z" fill="white"/>
</svg>
